<svg width="38" height="52" viewBox="0 0 38 52" fill="none" xmlns="http://www.w3.org/2000/svg">
<g clip-path="url(#paint0_diamond_24_2_clip_path)" data-figma-skip-parse="true"><g transform="matrix(0.02585 -0.065 -0.0125066 -0.0152517 9.15 58.5)"><rect x="0" y="0" width="1100.7" height="2012.71" fill="url(#paint0_diamond_24_2)" opacity="1" shape-rendering="crispEdges"/><rect x="0" y="0" width="1100.7" height="2012.71" transform="scale(1 -1)" fill="url(#paint0_diamond_24_2)" opacity="1" shape-rendering="crispEdges"/><rect x="0" y="0" width="1100.7" height="2012.71" transform="scale(-1 1)" fill="url(#paint0_diamond_24_2)" opacity="1" shape-rendering="crispEdges"/><rect x="0" y="0" width="1100.7" height="2012.71" transform="scale(-1)" fill="url(#paint0_diamond_24_2)" opacity="1" shape-rendering="crispEdges"/></g></g><path d="M18.2 46.66C13.76 46.66 10.24 45.44 7.64 43C5.08 40.52 3.8 37.2 3.8 33.04H11.3C11.3 35.24 11.92 36.96 13.16 38.2C14.4 39.44 16.08 40.06 18.2 40.06C20.32 40.06 22 39.46 23.24 38.26C24.48 37.02 25.1 35.3 25.1 33.1V9.16H14.9V2.2H32.6V33.1C32.6 37.3 31.3 40.62 28.7 43.06C26.14 45.46 22.64 46.66 18.2 46.66Z" data-figma-gradient-fill="{&#34;type&#34;:&#34;GRADIENT_DIAMOND&#34;,&#34;stops&#34;:[{&#34;color&#34;:{&#34;r&#34;:0.0,&#34;g&#34;:0.13645517826080322,&#34;b&#34;:0.73445010185241699,&#34;a&#34;:1.0},&#34;position&#34;:0.17813330888748169},{&#34;color&#34;:{&#34;r&#34;:0.28235295414924622,&#34;g&#34;:0.41568627953529358,&#34;b&#34;:1.0,&#34;a&#34;:1.0},&#34;position&#34;:1.0}],&#34;stopsVar&#34;:[{&#34;color&#34;:{&#34;r&#34;:0.0,&#34;g&#34;:0.13645517826080322,&#34;b&#34;:0.73445010185241699,&#34;a&#34;:1.0},&#34;position&#34;:0.17813330888748169},{&#34;color&#34;:{&#34;r&#34;:0.28235295414924622,&#34;g&#34;:0.41568627953529358,&#34;b&#34;:1.0,&#34;a&#34;:1.0},&#34;position&#34;:1.0}],&#34;transform&#34;:{&#34;m00&#34;:51.699993133544922,&#34;m01&#34;:-25.013277053833008,&#34;m02&#34;:-4.1933546066284180,&#34;m10&#34;:-129.99998474121094,&#34;m11&#34;:-30.503438949584961,&#34;m12&#34;:138.7517089843750},&#34;opacity&#34;:1.0,&#34;blendMode&#34;:&#34;NORMAL&#34;,&#34;visible&#34;:true}"/>
<path d="M1 50H35" stroke="url(#paint1_linear_24_2)" stroke-width="1.5" stroke-linecap="round"/>
<rect x="35.7626" y="48" width="2.49263" height="2.49263" transform="rotate(45 35.7626 48)" fill="url(#paint2_linear_24_2)"/>
<defs>
<clipPath id="paint0_diamond_24_2_clip_path"><path d="M18.2 46.66C13.76 46.66 10.24 45.44 7.64 43C5.08 40.52 3.8 37.2 3.8 33.04H11.3C11.3 35.24 11.92 36.96 13.16 38.2C14.4 39.44 16.08 40.06 18.2 40.06C20.32 40.06 22 39.46 23.24 38.26C24.48 37.02 25.1 35.3 25.1 33.1V9.16H14.9V2.2H32.6V33.1C32.6 37.3 31.3 40.62 28.7 43.06C26.14 45.46 22.64 46.66 18.2 46.66Z"/></clipPath><linearGradient id="paint0_diamond_24_2" x1="0" y1="0" x2="500" y2="500" gradientUnits="userSpaceOnUse">
<stop offset="0.178133" stop-color="#0023BB"/>
<stop offset="1" stop-color="#486AFF"/>
</linearGradient>
<linearGradient id="paint1_linear_24_2" x1="1" y1="52.5" x2="35" y2="52.5" gradientUnits="userSpaceOnUse">
<stop offset="1" stop-color="#486AFF"/>
<stop offset="1" stop-color="#480CA5"/>
</linearGradient>
<linearGradient id="paint2_linear_24_2" x1="35.8361" y1="50.4926" x2="38.1817" y2="48" gradientUnits="userSpaceOnUse">
<stop stop-color="#486AFF"/>
<stop offset="1" stop-color="#0028D6"/>
</linearGradient>
</defs>
</svg>
